# Blender3D v244 OBJ File: coral2_low.blend
# www.blender3d.org
o Sphere
v 1.157117 2.208035 -0.285394
v 1.843351 1.662178 -0.095863
v 0.240391 0.055400 -2.288619
v -0.491178 2.922832 2.172823
v 1.615950 0.294865 0.008625
v -0.554622 0.260262 0.440356
v 0.995709 -0.145692 0.006305
v 1.415725 1.720518 -1.802582
v 1.400013 0.346326 -0.432368
v -1.465609 2.726004 2.074849
v -0.237449 0.290665 -1.621907
v -0.264240 3.242958 1.470782
v 1.508117 1.567107 -0.689576
v -0.392882 1.462672 -2.389362
v 0.477578 2.176826 -0.469114
v 1.958647 4.173313 -2.240549
v -1.416301 -0.044578 0.942059
v 0.645810 1.493554 -0.845306
v -0.235205 3.091869 1.881917
v 0.237274 0.228453 -0.588514
v 0.418645 -0.135514 -0.048304
v -2.218455 1.717927 -0.004190
v 0.923797 3.809333 -2.461255
v -1.071889 2.747835 2.304082
v 0.418479 -0.204716 -1.657357
v -1.159240 2.657697 1.397367
v -0.097781 1.574807 -0.682828
v -1.133631 2.416913 1.906328
v 0.260607 2.243596 -0.036356
v 1.159258 2.099633 -2.149178
v -0.425313 1.654725 -0.153845
v 0.892818 2.106094 -2.580348
v -2.394482 0.164680 0.518946
v -0.182844 0.231885 0.128367
v -2.161952 0.984860 0.174571
v -1.481126 -0.114803 0.170010
v -2.152350 0.827373 1.126644
v -1.953017 0.525921 -0.202494
v 1.605801 0.114090 -1.946503
v 1.610163 3.886490 -2.756234
v 1.820781 1.526353 -2.248576
v 0.115931 1.800302 0.591077
v -0.796581 0.483979 -0.064306
v 0.032552 1.411903 -1.454200
v 1.006855 4.126564 -1.724739
v -1.051495 1.810855 0.007175
v 0.547047 2.025076 -1.905457
v 1.667740 4.235881 -1.853560
v 0.979753 3.406397 -2.303222
v 1.399270 0.391237 -1.194479
v 0.046612 0.276805 -1.262885
v -1.007330 1.036012 0.029054
v 0.989054 -0.206858 -1.601741
v 1.162849 0.239344 0.557334
v -0.441822 1.401790 0.747771
v 1.495621 1.779433 0.420173
v -1.277518 1.997818 0.592370
v 0.708208 1.683418 -1.223102
v 1.056929 3.538507 -1.778736
v 0.894055 2.351737 0.081221
v 0.268416 3.443413 0.028996
v 0.117223 3.343262 -0.263258
v 0.257056 3.227909 -0.546344
v -0.651512 3.220107 1.281184
v -1.478264 0.898335 1.439886
v 0.775896 0.372343 -1.035422
v 1.542545 1.461722 -2.851609
v 1.172168 0.754787 -2.428145
v 0.024064 1.443166 -2.766170
v 0.023095 0.809842 -2.278210
v 0.708208 1.396193 -3.087807
v 0.696883 3.487307 0.167921
v 1.147431 3.443395 0.046701
v 1.300859 3.350590 -0.231523
v -0.781412 0.072878 0.823834
v -1.024238 1.729451 0.912902
v 1.939574 4.028878 -2.616569
v -1.630878 1.534330 1.085492
v -2.576350 1.478828 0.401505
v 0.990918 3.195608 -0.643688
vn 0.009796 -0.895749 -0.444441
vn 0.097690 -0.664510 0.740837
vn -0.826167 -0.551958 -0.112980
vn 0.354076 0.226936 -0.907254
vn -0.463301 0.107364 -0.879635
vn -0.479965 0.618458 -0.622150
vn 0.269875 -0.962767 -0.013947
vn 0.522050 -0.487167 -0.700064
vn 0.863918 -0.498032 0.074679
vn -0.957884 0.186224 0.218482
vn -0.626667 -0.054903 0.777306
vn 0.074160 -0.271004 0.959685
vn 0.975433 0.181341 0.124851
vn 0.510758 0.554369 0.657063
vn 0.974029 0.109439 -0.198126
vn -0.821986 0.444563 -0.355876
vn -0.782769 -0.317087 0.535417
vn -0.890835 -0.432875 -0.137822
vn 0.219092 0.306070 -0.926420
vn 0.013367 -0.193304 -0.981017
vn 0.557146 0.203101 -0.805139
vn 0.953551 0.300119 0.024934
vn 0.912107 -0.289712 -0.289956
vn 0.418683 0.575915 -0.702139
vn 0.773217 0.240730 0.586627
vn 0.869686 0.321604 -0.374371
vn -0.003327 0.127903 -0.991760
vn -0.381848 0.210517 -0.899899
vn 0.592486 -0.109836 -0.798029
vn -0.341197 -0.599994 -0.723563
vn -0.899014 -0.437208 0.024415
vn -0.443953 -0.333964 -0.831446
vn -0.958586 0.282968 0.031220
vn -0.572985 0.108737 -0.812281
vn 0.227729 -0.536851 -0.812311
vn 0.518693 -0.749046 0.412122
vn -0.347056 -0.539750 -0.766930
vn 0.076632 -0.009339 0.997009
vn -0.255074 -0.966582 0.024628
vn -0.641591 0.393353 0.658467
vn 0.053560 0.563768 0.824183
vn 0.042421 0.369610 0.928190
vn 0.273476 0.793664 -0.543382
vn 0.566363 -0.612171 0.551744
vn 0.619892 -0.174688 0.764946
vn 0.011963 -0.769585 0.638417
vn 0.815760 -0.424970 -0.392315
vn -0.578051 0.241310 -0.779473
vn -0.283944 -0.945952 0.156529
vn 0.238014 -0.947844 0.211890
vn 0.110874 -0.102908 0.988464
vn 0.739738 -0.618275 -0.265481
vn 0.476577 -0.254036 0.841609
vn -0.784417 0.254158 0.565691
vn -0.947081 0.318644 -0.038575
vn -0.843287 0.418378 0.337321
vn 0.700583 -0.265328 0.662374
vn -0.780999 -0.537889 0.317270
vn -0.744743 0.101871 -0.659505
vn -0.520157 -0.337840 0.784387
vn 0.992462 0.016968 0.121250
vn 0.202368 0.378063 -0.903348
vn -0.403485 0.363170 0.839808
vn -0.374371 -0.069460 -0.924650
vn 0.338816 0.398206 0.852382
vn 0.988647 -0.130680 0.074038
vn 0.588702 -0.111301 0.800623
vn -0.573748 -0.122837 0.809748
vn 0.763268 -0.151799 -0.627949
vn 0.691549 -0.653462 0.307749
vn 0.308573 -0.448042 0.839045
vn 0.650746 0.031251 -0.758629
vn -0.088107 -0.116062 -0.989319
vn 0.558702 0.415052 0.718009
vn -0.543535 -0.048280 0.837977
vn -0.991485 -0.130009 0.001495
vn -0.602100 -0.183416 -0.777032
vn 0.380993 -0.202094 -0.902188
vn -0.838313 -0.295969 -0.457808
vn -0.019532 -0.079470 0.996643
usemtl Material
s 1
f 36//1 17//2 33//3
s 1
f 52//4 35//5 22//6
s 1
f 7//7 9//8 5//9
s 1
f 79//10 37//11 78//12
s 1
f 30//13 8//14 41//15
s 1
f 26//16 28//17 10//18
s 1
f 30//13 32//19 40//20
s 1
f 5//9 9//8 13//21
s 1
f 5//9 13//21 2//22
s 1
f 33//3 37//11 79//10
s 1
f 79//10 78//12 28//17
s 1
f 6//23 46//24 55//25
s 1
f 1//26 2//22 13//21
s 1
f 13//21 18//27 15//28
s 1
f 15//28 1//26 13//21
s 1
f 36//1 43//29 6//23
s 1
f 3//30 11//31 70//32
s 1
f 70//32 14//33 69//34
s 1
f 9//8 18//27 13//21
s 1
f 3//30 70//32 68//35
s 1
f 78//12 4//36 28//17
s 1
f 9//8 20//37 18//27
s 1
f 17//2 55//25 65//38
s 1
f 7//7 21//39 20//37
s 1
f 7//7 20//37 9//8
s 1
f 44//40 58//41 47//42
s 1
f 57//43 55//25 46//24
s 1
f 75//44 6//23 55//25
s 1
f 36//1 6//23 75//44
s 1
f 50//45 41//15 8//14
s 1
f 28//17 24//46 10//18
s 1
f 35//5 79//10 22//6
s 1
f 30//13 40//20 77//47
s 1
f 18//27 20//37 27//48
s 1
f 25//49 53//50 66//51
s 1
f 39//52 3//30 68//35
s 1
f 6//23 43//29 52//4
s 1
f 18//27 27//48 15//28
s 1
f 47//42 48//53 59//54
s 1
f 27//48 31//55 29//56
s 1
f 27//48 29//56 15//28
s 1
f 47//42 30//13 16//57
s 1
f 52//4 22//6 46//24
s 1
f 20//37 34//58 31//55
s 1
f 20//37 31//55 27//48
s 1
f 30//13 77//47 16//57
s 1
f 46//24 22//6 57//43
s 1
f 53//50 3//30 39//52
s 1
f 44//40 66//51 58//41
s 1
f 32//19 69//34 49//59
s 1
f 21//39 34//58 20//37
s 1
f 11//31 51//60 44//40
s 1
f 33//3 17//2 37//11
s 1
f 66//51 8//14 58//41
s 1
f 39//52 68//35 41//15
s 1
f 76//61 57//43 64//62
s 1
f 57//43 22//6 26//16
s 1
f 68//35 70//32 69//34
s 1
f 26//16 10//18 64//62
s 1
f 17//2 75//44 55//25
s 1
f 34//58 42//63 31//55
s 1
f 36//1 33//3 38//64
s 1
f 25//49 11//31 3//30
s 1
f 31//55 42//63 29//56
s 1
f 60//65 74//66 73//67
s 1
f 59//54 48//53 45//68
s 1
f 42//63 60//65 29//56
s 1
f 76//61 12//69 19//70
s 1
f 25//49 66//51 51//60
s 1
f 34//58 54//71 42//63
s 1
f 32//19 49//59 40//20
s 1
f 32//19 41//15 67//72
s 1
f 28//17 4//36 24//46
s 1
f 38//64 35//5 52//4
s 1
f 22//6 79//10 28//17
s 1
f 21//39 7//7 54//71
s 1
f 21//39 54//71 34//58
s 1
f 53//50 50//45 66//51
s 1
f 78//12 19//70 4//36
s 1
f 37//11 17//2 65//38
s 1
f 22//6 28//17 26//16
s 1
f 71//73 69//34 32//19
s 1
f 14//33 47//42 59//54
s 1
f 32//19 30//13 41//15
s 1
f 37//11 65//38 78//12
s 1
f 36//1 38//64 43//29
s 1
f 54//71 56//74 42//63
s 1
f 51//60 66//51 44//40
s 1
f 43//29 38//64 52//4
s 1
f 42//63 56//74 60//65
s 1
f 35//5 33//3 79//10
s 1
f 1//26 60//65 56//74
s 1
f 1//26 56//74 2//22
s 1
f 25//49 51//60 11//31
s 1
f 41//15 68//35 67//72
s 1
f 54//71 5//9 2//22
s 1
f 54//71 2//22 56//74
s 1
f 68//35 71//73 67//72
s 1
f 49//59 59//54 45//68
s 1
f 47//42 8//14 30//13
s 1
f 57//43 76//61 55//25
s 1
f 65//38 55//25 78//12
s 1
f 7//7 5//9 54//71
s 1
f 14//33 44//40 47//42
s 1
f 60//65 1//26 74//66
s 1
f 58//41 8//14 47//42
s 1
f 53//50 25//49 3//30
s 1
f 69//34 14//33 59//54
s 1
f 66//51 50//45 8//14
s 1
f 29//56 60//65 61//75
s 1
f 6//23 52//4 46//24
s 1
f 29//56 61//75 62//76
s 1
f 15//28 29//56 62//76
s 1
f 15//28 62//76 63//77
s 1
f 68//35 69//34 71//73
s 1
f 15//28 63//77 80//78
s 1
f 1//26 15//28 80//78
s 1
f 69//34 59//54 49//59
s 1
f 53//50 39//52 50//45
s 1
f 1//26 80//78 74//66
s 1
f 36//1 75//44 17//2
s 1
f 47//42 16//57 48//53
s 1
f 78//12 76//61 19//70
s 1
f 38//64 33//3 35//5
s 1
f 49//59 45//68 23//79
s 1
f 67//72 71//73 32//19
s 1
f 57//43 26//16 64//62
s 1
f 11//31 44//40 14//33
s 1
f 50//45 39//52 41//15
s 1
f 76//61 64//62 12//69
s 1
f 61//75 60//65 72//80
s 1
f 78//12 55//25 76//61
s 1
f 40//20 49//59 23//79
s 1
f 60//65 73//67 72//80
s 1
f 70//32 11//31 14//33
