# Blender3D v244 OBJ File: crab.blend
# www.blender3d.org
o Sphere
v 0.041686 0.491381 -0.734372
v 0.382049 0.839251 -0.190926
v -0.340851 0.839251 -0.216055
v 0.015488 0.812401 -0.056457
v 0.876615 0.268729 0.815601
v -0.904114 0.268729 0.753702
v 0.897065 0.498981 0.584395
v -0.908460 0.498981 0.521634
v 0.681263 0.457596 1.036836
v -0.724596 0.457596 0.987967
v 0.862439 0.407724 1.028597
v -0.904762 0.407724 0.967168
v 0.179015 0.339784 0.665666
v -0.197786 0.339784 0.652568
v 1.176021 0.405093 0.850066
v -1.205190 0.405093 0.767293
v 0.794768 0.607558 1.272704
v -0.854204 0.607558 1.215384
v 0.824337 0.711886 -0.099918
v -0.788391 0.711886 -0.155978
v 1.139155 0.404359 0.665715
v -1.155612 0.404359 0.585947
v 0.906298 0.202494 0.395749
v -0.904572 0.202494 0.332802
v 0.931136 0.587677 0.195776
v -0.915464 0.587677 0.131587
v 0.466637 -0.001129 0.199659
v -0.452356 -0.001129 0.167714
v 0.887748 0.527568 0.869701
v -0.918977 0.527568 0.806898
v 0.900285 0.362894 -0.095542
v -0.864459 0.362894 -0.156886
v 0.926704 0.460332 1.176661
v -0.979153 0.460332 1.110412
v -0.002298 0.560061 0.455206
v 0.400216 0.651919 0.286140
v -0.392101 0.651919 0.258599
v -0.005361 0.200813 0.543337
v 0.823415 0.431331 0.318958
v -0.816557 0.431331 0.261951
v 0.422984 0.240119 -0.586754
v -0.354201 0.240119 -0.613770
v 0.037238 0.242152 -0.682174
v 0.788817 0.537913 1.228165
v -0.845175 0.537913 1.171366
v 0.665863 0.529906 -0.429508
v -0.607413 0.529906 -0.473769
v 0.441974 0.773636 -0.456037
v -0.382222 0.773636 -0.484687
v 0.001735 0.001198 0.339194
v 0.030240 0.045572 -0.480854
v 0.740553 0.131094 -0.157852
v -0.700786 0.131094 -0.207954
v 0.028634 0.882233 -0.434648
v 0.001690 0.528237 0.340495
v 0.968401 0.120482 0.302695
v -0.960063 0.120482 0.235660
v 0.975267 0.488785 0.473058
v -0.978742 0.488785 0.405135
v 0.995525 0.591087 1.001621
v -1.035654 0.591087 0.931016
v 1.025054 0.389852 0.366797
v -1.021031 0.389852 0.295674
v 0.469634 0.179281 0.577775
v -0.481601 0.179281 0.544709
v 0.037075 0.716136 -0.677470
v 0.017688 -0.002027 -0.119737
v 1.132477 0.258656 0.592004
v -1.143832 0.258656 0.512878
vn -0.703482 -0.691092 0.165746
vn -0.589221 0.781945 -0.203284
vn -0.679922 0.564318 0.468184
vn 0.645772 0.564318 0.514267
vn 0.601917 0.781945 -0.161901
vn 0.690268 -0.691092 0.214179
vn -0.837428 0.206671 0.505905
vn 0.800287 0.206671 0.562853
vn 0.253945 -0.177404 0.950774
vn -0.319376 -0.177404 0.930845
vn -0.223273 -0.375469 0.899503
vn 0.198218 -0.513718 0.834742
vn 0.122898 -0.927549 0.352855
vn -0.147130 -0.927549 0.343455
vn -0.255684 -0.513718 0.818964
vn 0.160283 -0.375469 0.912839
vn 0.949980 -0.282327 -0.133366
vn 0.948332 0.196844 -0.248726
vn 0.352336 0.935667 -0.018403
vn -0.350200 0.935667 -0.042817
vn -0.928770 0.196844 -0.313974
vn -0.938414 -0.282327 -0.199011
vn 0.302622 -0.950407 0.071352
vn -0.306864 -0.950407 0.050172
vn 0.741264 0.627979 -0.236915
vn -0.723014 0.627979 -0.287820
vn 0.416303 0.684194 -0.598773
vn 0.650899 0.737754 -0.178899
vn 0.682485 0.122410 -0.720542
vn -0.630390 0.122532 -0.766533
vn -0.636891 0.737754 -0.223670
vn -0.374187 0.680807 -0.629627
vn 0.169836 0.979827 0.105136
vn 0.008881 0.966552 -0.256264
vn 0.372051 0.836329 0.402631
vn -0.176702 0.979827 0.093112
vn 0.354595 0.856288 0.375469
vn 0.179876 0.714560 0.676015
vn -0.226386 0.714560 0.661885
vn -0.379803 0.856288 0.349925
vn 0.786431 -0.221992 0.576373
vn -0.784173 0.457778 0.418867
vn 0.753197 0.457778 0.472304
vn -0.824580 -0.221992 0.520371
vn 0.015351 -0.896878 -0.441969
vn 0.030274 -0.465529 -0.884487
vn 0.447005 -0.423353 -0.787957
vn -0.390881 -0.422040 -0.817957
vn 0.140599 0.983612 -0.112613
vn -0.132420 0.983612 -0.122105
vn -0.198370 0.441603 0.874966
vn -0.983123 -0.156774 0.094058
vn 0.225990 -0.689566 0.688009
vn -0.273232 -0.689566 0.670675
vn 0.974212 -0.156774 0.162084
vn 0.137150 0.441603 0.886654
vn 0.034486 0.077792 -0.996368
vn 0.027711 0.523362 -0.851650
vn -0.079989 0.149144 0.985565
vn 0.011353 0.149144 0.988739
vn 0.292093 -0.188238 0.937651
vn 0.392804 0.555742 0.732658
vn 0.999390 0.000000 0.034730
vn -0.015839 -0.889676 0.456252
vn 0.002930 -0.996368 -0.084750
vn 0.564470 -0.697195 -0.441877
vn -0.532426 -0.697195 -0.480026
vn 0.888668 -0.105960 -0.446089
vn -0.855556 -0.105960 -0.506729
usemtl (null)
usemtl (null)
s 1
f 5//1 7//2 39//3
s 1
f 40//4 8//5 6//6
s 1
f 5//1 9//7 7//2
s 1
f 8//5 10//8 6//6
s 1
f 11//9 9//7 5//1
s 1
f 6//6 10//8 12//10
s 1
f 23//11 64//12 27//13
s 1
f 28//14 65//15 24//16
s 1
f 68//17 62//18 58//19
s 1
f 59//20 63//21 69//22
s 1
f 5//1 39//3 23//11
s 1
f 24//16 40//4 6//6
s 1
f 27//13 56//23 23//11
s 1
f 24//16 57//24 28//14
s 1
f 5//1 23//11 56//23
s 1
f 57//24 24//16 6//6
s 1
f 7//2 58//19 39//3
s 1
f 40//4 59//20 8//5
s 1
f 21//25 58//19 7//2
s 1
f 8//5 59//20 22//26
s 1
f 48//27 19//28 46//29
s 1
f 47//30 20//31 49//32
s 1
f 2//33 54//34 4//35
s 1
f 4//35 54//34 3//36
s 1
f 39//3 25//37 36//38
s 1
f 37//39 26//40 40//4
s 1
f 25//37 19//28 36//38
s 1
f 37//39 20//31 26//40
s 1
f 11//9 15//41 29//42
s 1
f 30//43 16//44 12//10
s 1
f 51//45 43//46 41//47
s 1
f 42//48 43//46 51//45
s 1
f 60//49 15//41 21//25
s 1
f 22//26 16//44 61//50
s 1
f 17//51 44//52 33//53
s 1
f 34//54 45//55 18//56
s 1
f 11//9 29//42 9//7
s 1
f 10//8 30//43 12//10
s 1
f 60//49 21//25 7//2
s 1
f 8//5 22//26 61//50
s 1
f 2//33 48//27 54//34
s 1
f 54//34 49//32 3//36
s 1
f 33//53 29//42 15//41
s 1
f 16//44 30//43 34//54
s 1
f 1//57 41//47 43//46
s 1
f 42//48 1//57 43//46
s 1
f 21//25 15//41 68//17
s 1
f 69//22 16//44 22//26
s 1
f 48//27 66//58 54//34
s 1
f 54//34 66//58 49//32
s 1
f 68//17 58//19 21//25
s 1
f 22//26 59//20 69//22
s 1
f 39//3 36//38 23//11
s 1
f 24//16 37//39 40//4
s 1
f 36//38 13//59 23//11
s 1
f 24//16 14//60 37//39
s 1
f 64//12 23//11 13//59
s 1
f 14//60 24//16 65//15
s 1
f 25//37 39//3 58//19
s 1
f 59//20 40//4 26//40
s 1
f 60//49 7//2 29//42
s 1
f 30//43 8//5 61//50
s 1
f 13//59 38//61 64//12
s 1
f 65//15 38//61 14//60
s 1
f 36//38 2//33 4//35
s 1
f 4//35 3//36 37//39
s 1
f 36//38 4//35 35//62
s 1
f 35//62 4//35 37//39
s 1
f 5//1 15//41 11//9
s 1
f 12//10 16//44 6//6
s 1
f 35//62 13//59 36//38
s 1
f 37//39 14//60 35//62
s 1
f 41//47 1//57 46//29
s 1
f 47//30 1//57 42//48
s 1
f 36//38 19//28 2//33
s 1
f 3//36 20//31 37//39
s 1
f 5//1 68//17 15//41
s 1
f 16//44 69//22 6//6
s 1
f 5//1 56//23 68//17
s 1
f 69//22 57//24 6//6
s 1
f 46//29 1//57 48//27
s 1
f 49//32 1//57 47//30
s 1
f 35//62 55//63 4//35
s 1
f 35//62 38//61 55//63
s 1
f 35//62 38//61 13//59
s 1
f 14//60 38//61 35//62
s 1
f 27//13 50//64 67//65
s 1
f 67//65 50//64 28//14
s 1
f 68//17 56//23 62//18
s 1
f 63//21 57//24 69//22
s 1
f 27//13 64//12 38//61
s 1
f 38//61 65//15 28//14
s 1
f 27//13 38//61 50//64
s 1
f 50//64 38//61 28//14
s 1
f 52//66 27//13 51//45
s 1
f 51//45 28//14 53//67
s 1
f 27//13 67//65 51//45
s 1
f 51//45 67//65 28//14
s 1
f 1//57 66//58 48//27
s 1
f 66//58 1//57 49//32
s 1
f 52//66 56//23 27//13
s 1
f 28//14 57//24 53//67
s 1
f 52//66 51//45 41//47
s 1
f 42//48 51//45 53//67
s 1
f 17//51 33//53 60//49
s 1
f 61//50 34//54 18//56
s 1
f 33//53 15//41 60//49
s 1
f 61//50 16//44 34//54
s 1
f 31//68 56//23 52//66
s 1
f 53//67 57//24 32//69
s 1
f 2//33 19//28 48//27
s 1
f 49//32 20//31 3//36
s 1
f 46//29 19//28 31//68
s 1
f 32//69 20//31 47//30
s 1
f 31//68 52//66 46//29
s 1
f 47//30 53//67 32//69
s 1
f 52//66 41//47 46//29
s 1
f 47//30 42//48 53//67
s 1
f 17//51 60//49 44//52
s 1
f 45//55 61//50 18//56
s 1
f 62//18 56//23 31//68
s 1
f 32//69 57//24 63//21
s 1
f 62//18 25//37 58//19
s 1
f 59//20 26//40 63//21
s 1
f 60//49 29//42 44//52
s 1
f 45//55 30//43 61//50
s 1
f 62//18 31//68 25//37
s 1
f 26//40 32//69 63//21
s 1
f 31//68 19//28 25//37
s 1
f 26//40 20//31 32//69
s 1
f 9//7 29//42 7//2
s 1
f 8//5 30//43 10//8
s 1
f 33//53 44//52 29//42
s 1
f 30//43 45//55 34//54
